<?xml version="1.0" encoding="utf-8"?>
<svg viewBox="71 242 456 177" xmlns="http://www.w3.org/2000/svg">
  <g id="FLOOR_2" transform="matrix(1.092294, 0, 0, 1.1184, -26.913071, -47.13065)" style="">
    <path id="XMLID_57_" d="M298.8,370c-47.7,0-86.4,10.1-86.4,22.4c0,12.4,38.7,22.5,86.4,22.5 c42.5,0,77.9-8,85.1-18.5c0,0,0,0,0,0c0.9-1.3,1.3-2.6,1.3-3.9C385.2,380.1,346.5,370,298.8,370z M298.8,395.6 c-27.5,0-49.7-3.3-49.7-7.4c0,0,0-0.1,0-0.3c0-0.1,0-0.1,0.1-0.2c0,0,0-0.1,0.1-0.1c1.9-3.8,23.4-6.8,49.5-6.8 c25.2,0,46,2.8,49.2,6.4c0.3,0.3,0.4,0.6,0.4,0.9c0,0,0,0.1,0,0.1C348.5,392.3,326.2,395.6,298.8,395.6z" style="fill: rgb(251, 194, 0);"/>
  </g>
  <g id="Layer_1" style="" transform="matrix(1.032838, 0, 0, 1.014472, -51.984436, 94.113411)">
    <g id="XMLID_149_" style="" transform="matrix(0.723141, 0, 0, 0.563299, 126.217598, 72.327644)">
      <path id="XMLID_152_" d="M298.8,365.9c-47.7,0-86.4,10.1-86.4,22.4c0,12.4,38.7,22.5,86.4,22.5 c42.5,0,77.9-8,85.1-18.5c0,0,0,0,0,0c0.9-1.3,1.3-2.6,1.3-3.9C385.2,376,346.5,365.9,298.8,365.9z M298.8,391.5 c-27.5,0-49.7-3.3-49.7-7.4c0,0,0-0.1,0-0.3c0-0.1,0-0.1,0.1-0.2c0,0,0-0.1,0.1-0.1c1.9-3.8,23.4-6.8,49.5-6.8 c25.2,0,46,2.8,49.2,6.4c0.3,0.3,0.4,0.6,0.4,0.9c0,0,0,0.1,0,0.1C348.5,388.2,326.2,391.5,298.8,391.5z" style="fill: rgb(242, 242, 242);"/>
      <path id="XMLID_151_" d="M383.9,392.3c-7.2,10.5-42.5,18.5-85.1,18.5c-47.7,0-86.4-10.1-86.4-22.5 c0,0,15,18.1,83.4,18.1C354.6,406.5,378.3,395.4,383.9,392.3z" style="fill: rgb(242, 242, 242);"/>
      <path id="XMLID_150_" d="M348,383.1c-3.3-3.6-24.1-6.4-49.2-6.4c-26.2,0-47.6,3-49.5,6.8c0.9-2.2,6.9-9.8,49.5-9.8 C338,373.7,346.3,380.5,348,383.1z" style="fill: rgb(242, 242, 242);"/>
    </g>
  </g>
  <g id="FLOOR_1">
    <path id="XMLID_157_" fill="#7A97F4" d="M195.2,377.1H112c-2.1,0-4.2,0.7-5.9,2l-32,25.1c-1.5,1.2-0.7,3.6,1.2,3.6h87.9 c2.2,0,4.4-0.9,6-2.4l26.9-26C197,378.6,196.4,377.1,195.2,377.1z"/>
  </g>
  <g id="FLOOR_3">
    <path id="XMLID_12_" d="M525.3,377.1H442c-2.1,0-4.2,0.7-5.9,2l-32,25.1c-1.5,1.2-0.7,3.6,1.2,3.6h87.9 c2.2,0,4.4-0.9,6-2.4l26.9-26C527.1,378.6,526.5,377.1,525.3,377.1z" fill="#7A97F4"/>
  </g>
  <g id="FOUR_SHADOW_1">
    <path id="XMLID_47_" d="M195.9,377.1l-17.5-125.2c-0.2-1.3-1.3-2.3-2.7-2.3h-23.6c-1.6,0-2.9,1.4-2.7,3.1l5.9,47.3 c0.2,1.9-1.2,3.5-3.1,3.5h-27c-1.7,0-3.1-1.3-3.2-3l-2.2-48.2c-0.1-1.5-1.3-2.6-2.7-2.6H95c-1.6,0-2.8,1.3-2.7,2.8l3,82.4 c0.1,2.6,2.3,4.7,4.9,4.7h60.1l4.7,37.7H195.9z" fill="#273D7A"/>
  </g>
  <g id="FOUR_SHADOW_2">
    <path id="XMLID_147_" d="M526,377.1l-17.5-125.2c-0.2-1.3-1.3-2.3-2.7-2.3h-23.6c-1.6,0-2.9,1.4-2.7,3.1l5.9,47.3 c0.2,1.9-1.2,3.5-3.1,3.5h-27c-1.7,0-3.1-1.3-3.2-3l-2.2-48.2c-0.1-1.5-1.3-2.6-2.7-2.6h-22c-1.6,0-2.8,1.3-2.7,2.8l3,82.4 c0.1,2.6,2.3,4.7,4.9,4.7h60.1l4.7,37.7H526z" fill="#273D7A"/>
  </g>
  <g id="FOUR_1">
    <g id="XMLID_3_">
      <path id="XMLID_73_" d="M177.7,253.2l-13.2,149.6c-0.2,2.8-2.6,5-5.4,5h-19.8c-3.3,0-5.8-2.9-5.4-6.1l8.3-70.1 l-59.3,1c-3.3,0-5.8-2.9-5.2-6.1l0.2-1.3l13.6-72.9c0.4-2,2.1-3.5,4.2-3.5h18.9c2.6,0,4.6,2.4,4.2,5l-8.1,46 c-0.3,1.9,1.1,3.5,3,3.5h28.3l6.6-51.1c0.3-2,2-3.5,4-3.5h21.1C176,248.8,177.9,250.9,177.7,253.2z" fill="#FF97C9"/>
      <path id="XMLID_18_" d="M142.6,325.2l-0.5,6.4l-59.3,1c-3.3,0-5.8-2.9-5.2-6.1l0.2-1.3H142.6z" fill="#F774B9"/>
      <path id="XMLID_42_" d="M177.7,253.2l-13.2,149.6c-0.2,2.8-2.6,5-5.4,5h-3l15.7-159h1.9 C176,248.8,177.9,250.9,177.7,253.2z" fill="#F774B9"/>
      <path id="XMLID_17_" d="M110.6,299.9c-0.3,1.9,1.1,3.5,3,3.5h-5.8c-2.1,0-3.8-1.9-3.4-4l8.9-50.5h1.3 c2.6,0,4.6,2.4,4.2,5L110.6,299.9z" fill="#F774B9"/>
    </g>
  </g>
  <g id="FOUR_1_1_">
    <g id="XMLID_137_">
      <path id="XMLID_141_" d="M507.7,253.2l-13.2,149.6c-0.2,2.8-2.6,5-5.4,5h-19.8c-3.3,0-5.8-2.9-5.4-6.1l8.3-70.1 l-59.3,1c-3.3,0-5.8-2.9-5.2-6.1l0.2-1.3l13.6-72.9c0.4-2,2.1-3.5,4.2-3.5h18.9c2.6,0,4.6,2.4,4.2,5l-8.1,46 c-0.3,1.9,1.1,3.5,3,3.5h28.3l6.6-51.1c0.3-2,2-3.5,4-3.5h21.1C506.1,248.8,508,250.9,507.7,253.2z" style="fill: rgb(71, 114, 214);"/>
      <path id="XMLID_140_" d="M472.7,325.2l-0.5,6.4l-59.3,1c-3.3,0-5.8-2.9-5.2-6.1l0.2-1.3H472.7z" style="fill: rgb(71, 114, 214);"/>
      <path id="XMLID_139_" d="M507.7,253.2l-13.2,149.6c-0.2,2.8-2.6,5-5.4,5h-3l15.7-159h1.9 C506.1,248.8,508,250.9,507.7,253.2z" style="fill: rgb(71, 114, 214);"/>
      <path id="XMLID_138_" d="M440.7,299.9c-0.3,1.9,1.1,3.5,3,3.5h-5.8c-2.1,0-3.8-1.9-3.4-4l8.9-50.5h1.3 c2.6,0,4.6,2.4,4.2,5L440.7,299.9z" style="fill: rgb(71, 114, 214);"/>
    </g>
  </g>
  <path d="M 293.047 394.352 L 288.397 394.352 L 288.397 393.232 L 289.847 392.982 L 289.847 382.792 L 288.397 382.542 L 288.397 381.412 L 293.047 381.412 L 293.047 382.542 L 291.597 382.792 L 291.597 387.262 L 297.777 387.262 L 297.777 382.792 L 296.337 382.542 L 296.337 381.412 L 297.777 381.412 L 299.527 381.412 L 300.977 381.412 L 300.977 382.542 L 299.527 382.792 L 299.527 392.982 L 300.977 393.232 L 300.977 394.352 L 296.337 394.352 L 296.337 393.232 L 297.777 392.982 L 297.777 388.642 L 291.597 388.642 L 291.597 392.982 L 293.047 393.232 L 293.047 394.352 Z" transform="matrix(2.4979701042175293, 0.05320100113749504, -1.6609079837799072, 1.1298999786376953, 207.62466430664062, -64.6072006225586)" style="fill: rgb(32, 32, 32); white-space: pre;"/>
  <path d="M 341.634 346.683 C 341.155 346.633 333.639 346.613 323.323 346.613 L 316.518 331.113 L 310.323 332.223 L 316.155 346.613 C 304.127 346.613 289.98 346.613 278.707 346.603 L 285.555 332.373 L 278.199 332.373 L 271.466 346.593 C 264.241 346.583 259.25 346.563 258.582 346.523 C 255.825 346.363 252.503 344.943 251.124 344.393 C 249.746 343.843 247.221 341.623 244.813 343.443 C 242.404 345.263 246.554 347.493 249.398 348.743 C 253.533 350.563 258.234 350.723 260.991 350.723 C 263.747 350.723 340.836 350.803 341.866 350.723 C 342.896 350.643 344.274 349.533 344.274 348.743 C 344.274 347.953 343.447 346.863 341.634 346.683 Z" fill="#feb804" style="" transform="matrix(0.981627, -0.190809, 0.190809, 0.981627, -59.648636, 62.396515)"/>
  <path d="M 362.24 274.687 C 361.21 274.607 300.184 273.977 300.184 273.977 C 300.184 273.977 298.776 272.467 294.96 271.747 C 298.051 271.647 300.401 271.487 300.532 271.297 C 301.446 269.877 296.977 267.507 289.984 267.427 C 283.44 267.357 278.739 269.717 279.319 271.457 C 279.406 271.717 282.25 271.837 285.834 271.867 C 282.134 272.657 280.465 274.147 280.465 274.147 C 280.465 274.147 220.571 275.797 218.844 275.877 C 217.118 275.957 215.754 276.347 215.754 277.297 C 215.754 278.247 216.552 279.037 218.046 279.037 C 219.541 279.037 276.084 277.617 276.084 277.617 C 276.084 277.617 250.039 282.677 248.443 282.997 C 246.833 283.317 244.772 283.707 245.005 284.657 C 245.237 285.607 247.297 285.527 248.559 285.287 C 249.822 285.047 285.95 278.887 285.95 278.887 L 285.95 285.757 C 282.874 285.747 280.349 285.807 279.987 285.997 C 278.898 286.577 277.825 289.307 277.346 291.687 C 276.766 294.537 276.664 297.537 276.664 297.537 L 292.494 298.167 L 298.689 285.987 C 298.689 285.987 297.18 285.937 295.018 285.887 L 295.018 279.347 C 295.018 279.347 333.671 286.147 334.701 286.307 C 335.732 286.467 337.458 286.387 337.574 285.677 C 337.69 284.967 337.458 284.337 336.08 283.937 C 334.701 283.537 304.885 277.687 304.885 277.687 C 304.885 277.687 358.918 277.687 361.326 277.607 C 363.735 277.527 364.417 277.057 364.417 276.107 C 364.417 275.167 363.27 274.767 362.24 274.687 Z" fill="#5e6367" style="" transform="matrix(0.981627, -0.190809, 0.190809, 0.981627, -48.63036, 60.546658)"/>
  <path d="M 240.079 311.461 L 236.873 313.521 L 232.52 317.791 C 232.52 317.791 230.344 321.741 237.337 324.751 C 244.331 327.751 253.167 330.051 283.68 329.571 C 314.193 329.101 327.498 325.061 333.23 320.161 C 338.961 315.261 339.425 310.991 339.425 310.991 L 348.943 304.671 L 369.706 304.911 C 369.706 304.911 377.512 319.621 377.73 319.931 C 377.962 320.251 383.345 320.251 383.345 320.251 L 387.364 312.421 C 387.364 312.421 386.784 303.641 387.132 302.701 C 387.48 301.751 397.68 279.771 397.463 278.981 C 397.245 278.191 397.013 278.151 396.215 278.121 C 395.417 278.081 393.342 278.161 393.342 278.161 L 372.448 293.491 L 370.794 296.101 L 366.63 296.571 L 336.19 294.831 C 336.19 294.831 336.19 293.031 335.421 291.421 C 334.652 289.821 332.606 287.141 332.606 287.141 L 290.021 289.051 L 287.046 292.221 L 272.798 297.301 L 240.079 311.461 Z" fill="#ffa62d" style="" transform="matrix(0.981627, -0.190809, 0.190809, 0.981627, -52.197155, 65.655945)"/>
  <path d="M 379.513 265.099 C 379.223 265.439 370.285 280.499 370.285 280.499 L 381.486 300.449 C 381.486 300.449 381.341 301.189 380.137 301.369 C 378.933 301.549 376.422 300.299 376.422 300.299 L 380.325 307.239 C 380.325 307.239 389.902 307.239 389.989 306.999 C 390.076 306.759 383.416 285.999 383.416 285.529 C 383.416 285.059 392.136 264.929 392.136 264.929 C 392.136 264.929 379.76 264.799 379.513 265.099 Z" fill="#ffd61c" style="" transform="matrix(0.981627, -0.190809, 0.190809, 0.981627, -47.580799, 77.994263)"/>
  <path d="M 325.699 290.726 C 325.699 290.726 330.023 292.576 332.606 294.716 C 334.884 296.596 337.785 299.776 337.785 299.776 L 347.376 294.536 L 370.011 295.246 C 370.011 295.246 369.779 292.236 369.575 291.556 C 369.314 290.666 368.705 289.536 368.705 289.536 L 334.84 287.926 L 325.699 290.726 Z" fill="#ffd61c" style="" transform="matrix(0.981627, -0.190809, 0.190809, 0.981627, -49.678318, 71.772697)"/>
  <path d="M 286.686 289.974 C 286.686 289.974 293.853 290.664 306.128 291.164 C 316.415 291.584 324.018 291.934 327.21 290.804 C 329.416 290.024 330.069 289.194 330.069 289.194 C 330.069 289.194 326.877 284.494 325.571 283.954 C 324.28 283.414 308.131 282.074 299.831 282.584 C 292.91 283.004 286.686 289.974 286.686 289.974 Z" fill="#ffd61c" style="" transform="matrix(0.981627, -0.190809, 0.190809, 0.981627, -49.099792, 64.114494)"/>
  <path d="M 335.981 312.001 C 335.981 312.001 322.879 297.671 289.899 298.091 C 256.934 298.521 251.043 315.581 251.043 315.581 L 262.796 318.071 C 262.796 318.071 263.42 320.341 261.707 320.631 C 260.01 320.921 245.196 320.861 242.99 320.811 C 239.102 320.711 238.899 318.851 238.899 318.851 C 238.899 318.851 236.78 319.961 235.678 321.171 C 234.575 322.381 234.009 323.631 234.009 323.631 C 234.009 323.631 235.083 325.821 240.727 327.481 C 246.371 329.151 262.447 331.381 285.213 331.281 C 307.978 331.181 327.304 327.531 332.745 321.511 C 338.201 315.511 335.981 312.001 335.981 312.001 Z M 285.648 320.621 C 284.458 321.271 273.707 321.541 272.009 320.481 C 270.645 319.631 272.111 317.821 272.111 317.821 L 276.87 315.771 C 276.87 315.771 286.62 316.551 286.664 317.651 C 286.693 318.591 286.489 320.161 285.648 320.621 Z M 309.559 320.991 C 307.688 321.401 299.853 321.521 298.155 321.401 C 296.457 321.281 295.094 321.311 294.237 320.251 C 293.381 319.191 293.904 317.411 293.904 317.411 L 312.65 314.971 C 312.65 314.971 312.664 317.051 312.476 318.411 C 312.302 319.591 311.112 320.651 309.559 320.991 Z" fill="#ffd61c" style="" transform="matrix(0.981627, -0.190809, 0.190809, 0.981627, -54.804077, 60.203831)"/>
  <path d="M 277.064 304.839 C 275.744 305.609 270.608 318.569 271.435 318.819 C 272.247 319.069 285.204 319.129 285.988 318.639 C 286.771 318.149 288.512 304.999 287.932 304.599 C 287.351 304.209 278.138 304.209 277.064 304.839 Z" fill="#5e6367" style="" transform="matrix(0.981627, -0.190809, 0.190809, 0.981627, -54.330555, 59.094879)"/>
  <path d="M 294.584 300.711 C 293.917 301.051 292.655 314.191 292.93 314.711 C 293.278 315.371 296.746 315.221 301.81 315.221 C 306.874 315.221 311.43 314.531 311.763 312.361 C 312.141 309.911 311.923 305.961 311.763 304.301 C 311.604 302.641 309.108 301.271 305.539 300.811 C 302.84 300.481 295.469 300.251 294.584 300.711 Z" fill="#5e6367" style="" transform="matrix(0.981627, -0.190809, 0.190809, 0.981627, -53.182865, 63.362659)"/>
  <path d="M 263.923 328.085 C 263.227 327.525 253.795 327.845 253.389 332.715 C 253.143 335.685 258.453 337.455 259.614 337.405 C 260.774 337.355 261.601 335.515 262.762 332.945 C 263.749 330.745 264.416 328.485 263.923 328.085 Z" fill="#5e6367" style="" transform="matrix(0.981627, -0.190809, 0.190809, 0.981627, -58.717777, 55.480553)"/>
  <path d="M 240.566 323.578 C 240.9 324.488 261.387 324.328 262.374 323.918 C 263.201 323.578 270.833 306.828 270.499 306.488 C 270.165 306.148 262.533 306.888 251.347 313.348 C 244.455 317.328 240.247 322.668 240.566 323.578 Z" fill="#868686" style="" transform="matrix(0.981627, -0.190809, 0.190809, 0.981627, -55.473511, 54.550823)"/>
  <path d="M 277.027 310.73 C 278.464 311.02 279.77 309.02 281.09 308.56 C 282.41 308.1 284.471 307.42 284.413 306.56 C 284.325 305.53 280.176 304.73 278.522 305.65 C 276.868 306.57 274.793 310.27 277.027 310.73 Z" fill="#c9c7c4" style="" transform="matrix(0.981627, -0.190809, 0.190809, 0.981627, -53.620918, 59.129711)"/>
  <path d="M 296.28 302.941 C 295.119 303.801 294.785 307.401 296.526 307.631 C 298.268 307.861 299.095 306.261 300.589 305.511 C 302.084 304.771 304.347 304.301 304.245 302.991 C 304.158 301.971 298.355 301.391 296.28 302.941 Z" fill="#c9c7c4" style="" transform="matrix(0.981627, -0.190809, 0.190809, 0.981627, -52.654694, 62.801373)"/>
  <path d="M 264.949 309.574 C 263.818 308.864 257.579 311.464 253.168 314.314 C 249.032 317.004 244.97 320.564 246.131 321.634 C 248.031 323.404 252.108 318.774 256.664 315.974 C 258.855 314.624 266.865 310.774 264.949 309.574 Z" fill="#c8c8c8" style="" transform="matrix(0.981627, -0.190809, 0.190809, 0.981627, -55.550377, 54.569153)"/>
  <path d="M 368.779 274.263 C 366.675 274.573 368.779 281.033 369.504 283.173 C 370.23 285.323 372.304 288.403 372.304 288.403 L 376.614 287.023 C 376.614 287.023 375.25 282.183 373.813 279.373 C 372.377 276.563 370.607 273.983 368.779 274.263 Z" fill="#999a9d" style="" transform="matrix(0.981627, -0.190809, 0.190809, 0.981627, -46.839737, 76.195648)"/>
  <path d="M 376.088 289.658 C 376.088 289.658 376.03 291.968 377.757 295.448 C 379.425 298.848 381.645 301.798 383.589 301.378 C 385.389 300.988 384.141 295.858 383.256 293.668 C 382.371 291.478 380.412 288.688 380.412 288.688 L 376.088 289.658 Z" fill="#999a9d" style="" transform="matrix(0.981627, -0.190809, 0.190809, 0.981627, -49.311604, 77.985176)"/>
  <path d="M 375.065 285.74 C 371.714 286.61 371.917 288.49 372.657 289.7 C 373.194 290.58 375.399 291.82 377.982 291.02 C 379.984 290.4 381.232 289.18 380.231 287.29 C 379.592 286.06 377.721 285.05 375.065 285.74 Z" fill="#5e6367" style="" transform="matrix(0.981627, -0.190809, 0.190809, 0.981627, -48.113197, 77.118217)"/>
</svg>