<?xml version="1.0" encoding="UTF-8"?>
<svg xmlns="http://www.w3.org/2000/svg" xmlns:xlink="http://www.w3.org/1999/xlink" width="2000" height="2000" viewBox="0 0 2000 2000">
<rect x="-200" y="-200" width="2400" height="2400" fill="rgb(100%, 100%, 100%)" fill-opacity="1"/>
<path fill-rule="nonzero" fill="rgb(0%, 0%, 0%)" fill-opacity="1" d="M 1367.269531 1280.585938 C 1378.371094 1271.613281 1390.46875 1263.695312 1403.570312 1256.828125 C 1404.558594 1256.3125 1404.210938 1254.785156 1403.070312 1254.785156 L 1356.878906 1254.351562 C 1356.199219 1254.332031 1355.828125 1254.683594 1355.789062 1255.382812 L 1354.53125 1284.007812 C 1354.488281 1284.648438 1354.800781 1284.914062 1355.429688 1284.792969 C 1359.351562 1284.050781 1364.058594 1283.203125 1367.269531 1280.585938 M 905.71875 1303.519531 L 989.863281 1303.828125 C 990.480469 1303.828125 991 1303.332031 991.019531 1302.714844 L 993.019531 1255.257812 C 993.039062 1254.621094 992.503906 1254.0625 991.863281 1254.0625 L 908.835938 1254.023438 C 908.234375 1254.023438 907.71875 1254.496094 907.699219 1255.09375 L 904.5625 1302.300781 C 904.523438 1302.960938 905.039062 1303.519531 905.71875 1303.519531 M 1005.738281 1298.21875 L 1306.25 1298.195312 C 1306.621094 1298.195312 1306.929688 1297.910156 1306.949219 1297.539062 L 1309.359375 1255.074219 C 1309.378906 1254.660156 1309.070312 1254.332031 1308.660156 1254.332031 L 1007.230469 1254.105469 C 1006.859375 1254.105469 1006.53125 1254.414062 1006.53125 1254.785156 L 1005.039062 1297.496094 C 1005.039062 1297.886719 1005.351562 1298.21875 1005.738281 1298.21875 M 1340.421875 1292.421875 L 1342.011719 1256.023438 C 1342.050781 1255.09375 1341.328125 1254.332031 1340.398438 1254.332031 L 1325.058594 1254.226562 C 1324.191406 1254.226562 1323.46875 1254.929688 1323.429688 1255.796875 L 1321.761719 1298.570312 C 1321.710938 1299.765625 1322.890625 1300.589844 1324 1300.15625 L 1339.410156 1293.867188 C 1340.011719 1293.617188 1340.398438 1293.0625 1340.421875 1292.421875 M 1299.648438 1211.703125 C 1299.28125 1211.144531 1298.640625 1210.796875 1297.960938 1210.796875 L 1030.589844 1210.773438 C 1030.058594 1210.773438 1029.539062 1210.9375 1029.089844 1211.226562 C 1019.660156 1217.621094 1012.800781 1226.117188 1008.53125 1236.71875 C 1008.21875 1237.460938 1008.75 1238.265625 1009.558594 1238.265625 L 1309.160156 1238.410156 C 1310.058594 1238.410156 1310.480469 1237.957031 1310.378906 1237.050781 C 1309.238281 1227.335938 1304.929688 1219.785156 1299.648438 1211.703125 M 1323.78125 1237.6875 C 1323.839844 1238.574219 1324.289062 1238.988281 1325.179688 1238.96875 L 1342.261719 1238.574219 C 1342.941406 1238.554688 1343.25 1238.203125 1343.140625 1237.503906 C 1341.820312 1228.097656 1338.460938 1219.476562 1333.078125 1211.660156 C 1332.691406 1211.082031 1332.128906 1210.773438 1331.410156 1210.753906 L 1316.390625 1210.238281 C 1315.691406 1210.21875 1315.261719 1211.003906 1315.648438 1211.578125 C 1320.359375 1218.632812 1323.160156 1227.542969 1323.78125 1237.6875 M 1014.511719 1206.8125 C 1015.070312 1206.382812 1014.980469 1206.09375 1014.28125 1205.988281 C 998.214844 1203.535156 982.273438 1200.773438 966.457031 1197.71875 C 961.445312 1196.75 956.96875 1196.667969 953.03125 1197.429688 C 930.941406 1201.78125 916.339844 1215.003906 909.265625 1237.089844 C 909 1237.9375 909.289062 1238.347656 910.171875 1238.347656 L 992.648438 1238.429688 C 993.429688 1238.449219 993.949219 1238.078125 994.171875 1237.316406 C 997.84375 1225.355469 1004.378906 1214.960938 1014.511719 1206.8125 M 1367.050781 1029.988281 C 1366.738281 1029.351562 1366.21875 1029.019531 1365.5 1029 L 1242.171875 1024.855469 C 1241.488281 1024.832031 1241 1025.515625 1241.21875 1026.152344 C 1245.960938 1039.082031 1250.789062 1052.117188 1255.679688 1065.253906 C 1257.640625 1070.515625 1262.089844 1073.421875 1269.058594 1074.019531 C 1304.808594 1077.070312 1340.539062 1080.371094 1376.269531 1083.898438 C 1385.730469 1084.847656 1387.890625 1076.640625 1384.640625 1069.234375 C 1378.910156 1056.222656 1373.339844 1042.671875 1367.050781 1029.988281 M 1160.011719 1068.492188 C 1170.359375 1069.546875 1180.050781 1070.328125 1189.089844 1070.863281 C 1194.019531 1071.175781 1197.789062 1069.667969 1200.410156 1066.367188 C 1200.859375 1065.789062 1201.089844 1065.070312 1201.070312 1064.328125 C 1200.898438 1060.554688 1200.078125 1056.71875 1198.589844 1052.777344 C 1195.640625 1044.921875 1192.449219 1035.269531 1189 1023.824219 C 1188.730469 1022.976562 1187.96875 1022.421875 1187.109375 1022.398438 L 1161.328125 1022.132812 C 1160.230469 1022.132812 1159.859375 1022.648438 1160.25 1023.679688 C 1166.109375 1039.25 1171.210938 1052.242188 1159.179688 1066.472656 C 1158.171875 1067.667969 1158.441406 1068.347656 1160.011719 1068.492188 M 1344.160156 974.738281 C 1342.550781 970.878906 1338.769531 968.371094 1334.589844 968.371094 C 1305.75 968.371094 1276.410156 968.320312 1246.558594 968.261719 C 1239.738281 968.238281 1234.929688 969.070312 1232.109375 970.71875 C 1220.171875 977.691406 1230.699219 998.460938 1235.960938 1011.511719 C 1236.230469 1012.191406 1236.75 1012.542969 1237.488281 1012.5625 L 1360.179688 1016.210938 C 1361.019531 1016.234375 1361.269531 1015.839844 1360.960938 1015.078125 L 1344.160156 974.738281 M 1070.339844 1008.621094 C 1069.078125 987.191406 1079.21875 975.710938 1100.800781 974.160156 C 1106.628906 973.730469 1114.570312 974.019531 1124.621094 975.03125 C 1144.089844 976.960938 1148.441406 992.289062 1154.230469 1008.253906 C 1154.460938 1008.871094 1155.039062 1009.261719 1155.71875 1009.28125 L 1183.308594 1009.738281 C 1184.070312 1009.757812 1184.339844 1009.386719 1184.121094 1008.664062 C 1181.089844 998.910156 1178.109375 989.300781 1175.210938 979.808594 C 1172.75 971.828125 1167.761719 967.828125 1160.25 967.851562 C 1135.789062 967.871094 1111.359375 967.851562 1086.921875 967.769531 C 1067.179688 967.710938 1065.261719 995.898438 1069 1008.851562 C 1069.101562 1009.179688 1069.429688 1009.386719 1069.761719 1009.34375 C 1070.109375 1009.28125 1070.359375 1008.972656 1070.339844 1008.621094 M 372.828125 966.429688 C 373.449219 966.320312 374.046875 966.410156 374.625 966.648438 L 376.355469 967.371094 C 377.304688 967.789062 378.253906 966.78125 377.800781 965.851562 L 373.714844 957.410156 C 373.386719 956.691406 372.4375 956.53125 371.859375 957.058594 C 369.507812 959.269531 369.011719 961.929688 370.355469 965.050781 C 370.683594 965.808594 371.160156 966.261719 371.777344 966.410156 C 372.105469 966.46875 372.457031 966.488281 372.828125 966.429688 M 1429.910156 1064.078125 C 1432.730469 1070.164062 1435.761719 1076.164062 1438.960938 1082.0625 C 1443.019531 1089.550781 1448.21875 1091.117188 1456.941406 1091.878906 C 1506.539062 1096.171875 1540.660156 1099.347656 1559.320312 1101.386719 C 1572.230469 1102.8125 1568 1078.703125 1565.28125 1072.722656 C 1561.859375 1065.253906 1556.660156 1057.914062 1549.691406 1050.675781 C 1532.140625 1032.464844 1514.460938 1014.355469 1496.710938 996.351562 C 1483.769531 983.230469 1473.550781 974.390625 1466.019531 969.789062 C 1451.460938 960.878906 1412.789062 946.691406 1396.71875 957.210938 C 1385.441406 964.589844 1389.109375 976.078125 1394.210938 987.050781 C 1406.089844 1012.726562 1417.988281 1038.402344 1429.910156 1064.078125 M 349.378906 955.890625 C 348.824219 953.289062 347.484375 952.839844 345.339844 954.550781 C 345.214844 954.648438 345.113281 954.769531 345.007812 954.898438 C 341.894531 959 338.59375 962.980469 335.152344 966.839844 C 334.222656 967.890625 334.449219 968.429688 335.851562 968.410156 L 349.527344 968.21875 C 350.144531 968.199219 350.453125 967.890625 350.472656 967.289062 C 350.535156 963.390625 350.183594 959.601562 349.378906 955.890625 M 343.480469 940.550781 C 344.121094 939.570312 343.5625 938.28125 342.410156 938.070312 L 310.15625 932.339844 C 309.265625 932.191406 309.0625 932.5 309.496094 933.269531 L 319.457031 951 C 319.828125 951.640625 320.363281 951.890625 321.085938 951.71875 C 328.859375 949.949219 338.863281 947.449219 343.480469 940.550781 M 1048.191406 838.308594 C 1045.859375 838.171875 1043.789062 836.25 1043.519531 833.921875 C 1043.261719 831.609375 1044.871094 829.730469 1047.179688 829.648438 C 1048.308594 829.628906 1049.300781 829.429688 1050.128906 829.058594 C 1052.140625 828.171875 1052.058594 825.28125 1049.980469 824.5 L 1037.539062 819.839844 C 1036.820312 819.570312 1036.351562 818.871094 1036.371094 818.078125 L 1036.679688 806.570312 C 1036.699219 805.691406 1037.128906 805.171875 1038 805.011719 L 1053.359375 801.949219 C 1054.109375 801.789062 1054.640625 801.148438 1054.640625 800.390625 L 1054.71875 786.390625 C 1054.71875 785.871094 1054.460938 785.578125 1053.941406 785.519531 L 1033.878906 783.460938 C 1033.378906 783.390625 1033.128906 783.621094 1033.109375 784.140625 L 1032.820312 839.738281 C 1032.820312 840.539062 1033.210938 840.949219 1034.019531 840.949219 L 1049.359375 841.160156 C 1050.128906 841.160156 1050.621094 840.359375 1050.269531 839.691406 C 1049.789062 838.851562 1049.109375 838.371094 1048.191406 838.308594 M 1077.199219 829.671875 C 1078.011719 829.878906 1078.441406 830.390625 1078.5 831.238281 L 1078.808594 836.578125 C 1078.878906 837.410156 1078.128906 838.070312 1077.328125 837.921875 C 1075.199219 837.570312 1073.539062 838.210938 1072.300781 839.839844 C 1071.761719 840.539062 1072.25 841.550781 1073.140625 841.53125 L 1087.910156 841.179688 C 1088.648438 841.160156 1089.019531 840.789062 1089.039062 840.03125 L 1089.269531 784.488281 C 1089.269531 783.71875 1088.878906 783.390625 1088.109375 783.460938 L 1068.628906 785.230469 C 1067.980469 785.289062 1067.660156 785.640625 1067.679688 786.28125 L 1067.921875 800.371094 C 1067.941406 801.070312 1068.289062 801.441406 1069 801.5 C 1078.398438 802.28125 1083.929688 800.058594 1084.550781 812.25 C 1084.941406 819.589844 1081.269531 823.140625 1073.558594 822.910156 C 1072.089844 822.871094 1070.828125 823.921875 1070.628906 825.359375 C 1070.421875 826.808594 1071.351562 828.171875 1072.75 828.539062 L 1077.199219 829.671875 M 985.460938 764.558594 L 985.457031 764.640625 C 985.429688 765.511719 986.128906 766.261719 986.996094 766.269531 L 1021.789062 767.308594 C 1022.679688 767.328125 1023.398438 766.648438 1023.429688 765.769531 L 1023.429688 765.679688 C 1023.460938 764.808594 1022.761719 764.070312 1021.890625 764.050781 L 987.09375 763.019531 C 986.210938 763 985.492188 763.679688 985.460938 764.558594 M 1540.589844 686.460938 L 1595.160156 677.78125 C 1597.78125 677.371094 1600.460938 677.328125 1603.101562 677.640625 L 1669.609375 685.53125 C 1670.378906 685.621094 1670.949219 686.261719 1670.96875 687.019531 C 1670.96875 687.78125 1670.441406 688.441406 1669.679688 688.570312 L 1550.699219 707 C 1460.511719 720.390625 1370.390625 733.589844 1280.320312 746.558594 C 1258.460938 749.710938 1236.601562 752.851562 1214.71875 756.011719 C 1198.921875 758.269531 1183.621094 757.199219 1167.699219 756.980469 C 1165.488281 756.929688 1164.5 759.738281 1166.230469 761.101562 C 1166.628906 761.410156 1167.390625 761.570312 1168.480469 761.570312 C 1302.179688 762.300781 1435.890625 762.671875 1569.589844 762.648438 C 1661.71875 762.691406 1753.839844 762.828125 1845.96875 763.058594 C 1852.640625 763.078125 1861.578125 770.460938 1866.820312 774.179688 C 1868.199219 775.140625 1868.03125 775.640625 1866.339844 775.640625 L 1583.609375 775.429688 L 1160.171875 774.011719 C 1159.449219 774.011719 1159.121094 774.359375 1159.160156 775.058594 L 1159.328125 778.671875 C 1159.371094 779.53125 1158.960938 779.96875 1158.070312 779.949219 C 1144.96875 779.699219 1131.921875 779.289062 1118.878906 778.691406 C 1111.269531 778.339844 1104.488281 781.78125 1096.730469 782.628906 C 1095.828125 782.730469 1095.378906 783.230469 1095.378906 784.140625 L 1095.210938 840.460938 C 1095.210938 841.101562 1095.71875 841.609375 1096.359375 841.589844 C 1113.230469 841.371094 1129.339844 841.21875 1146.378906 842.851562 C 1165.179688 844.671875 1183.988281 846.359375 1202.820312 847.929688 C 1206.621094 848.25 1209.808594 850.070312 1212.429688 853.390625 C 1228.539062 873.769531 1244.828125 894.019531 1261.269531 914.121094 C 1261.679688 914.621094 1262.28125 914.910156 1262.921875 914.910156 L 1332.5 914.890625 C 1333.308594 914.890625 1333.738281 914.5 1333.800781 913.691406 L 1335.539062 890.640625 C 1335.589844 889.871094 1335.371094 889.109375 1334.890625 888.511719 C 1331.058594 883.539062 1327.058594 878.820312 1322.890625 874.320312 C 1305.441406 855.449219 1288.179688 836.421875 1271.109375 817.21875 C 1270.628906 816.660156 1270.75 816.371094 1271.480469 816.351562 C 1271.988281 816.328125 1272.488281 816.53125 1272.960938 817.011719 C 1289.011719 833.199219 1304.890625 849.570312 1320.578125 866.140625 C 1336.539062 882.941406 1352.570312 897.789062 1369.070312 913.238281 C 1370.609375 914.679688 1371.980469 915.429688 1373.191406 915.441406 C 1394.699219 915.960938 1417.71875 919.691406 1442.21875 926.691406 C 1454.859375 930.300781 1466.269531 934.808594 1476.429688 940.191406 C 1483.589844 943.96875 1492.289062 950.320312 1502.589844 959.25 C 1532.058594 984.839844 1561.421875 1010.539062 1590.710938 1036.339844 C 1607.46875 1051.066406 1624.160156 1065.875 1640.800781 1080.742188 C 1658.96875 1097.015625 1645.550781 1127.558594 1634.101562 1143.582031 C 1625.890625 1155.089844 1617.988281 1161.484375 1604.070312 1167.011719 C 1595.839844 1170.289062 1587.679688 1173.445312 1579.570312 1176.496094 C 1544.261719 1189.429688 1509.449219 1204.648438 1471.300781 1205.722656 C 1430.320312 1206.878906 1389.320312 1207.867188 1348.320312 1208.710938 C 1347.351562 1208.734375 1347.128906 1209.144531 1347.660156 1209.949219 C 1353 1218.179688 1355.871094 1227.230469 1356.238281 1237.109375 C 1356.261719 1237.75 1356.769531 1238.246094 1357.410156 1238.246094 C 1400.679688 1238.222656 1443.910156 1238.429688 1487.121094 1238.90625 C 1499.21875 1239.027344 1495.679688 1255.363281 1484.519531 1255.054688 C 1469.648438 1254.640625 1454.761719 1254.539062 1439.871094 1254.722656 C 1439.191406 1254.722656 1438.511719 1254.910156 1437.929688 1255.28125 C 1412.03125 1271.324219 1385.359375 1289.390625 1357.25 1301.148438 C 1353.910156 1302.550781 1354.058594 1303.25 1357.660156 1303.25 L 1487.609375 1303.394531 C 1488.699219 1303.394531 1489.53125 1304.40625 1489.300781 1305.476562 C 1486.808594 1317.523438 1479.5 1322.554688 1467.210938 1322.554688 C 1232.660156 1322.59375 998.792969 1322.53125 765.5625 1322.390625 C 763.148438 1322.390625 762.902344 1321.648438 764.820312 1320.183594 L 785.296875 1304.445312 C 785.960938 1303.929688 786.703125 1303.683594 787.527344 1303.683594 L 888.828125 1303.972656 C 889.53125 1303.972656 890.105469 1303.414062 890.167969 1302.714844 L 893.902344 1254.496094 C 893.964844 1253.753906 893.285156 1253.175781 892.5625 1253.339844 C 880.292969 1256.371094 880.929688 1238.511719 894.171875 1238.101562 C 894.769531 1238.078125 895.304688 1237.667969 895.449219 1237.070312 C 900.851562 1214.773438 913.988281 1198.957031 934.859375 1189.574219 C 935.644531 1189.222656 935.644531 1188.851562 934.878906 1188.5 C 872.125 1158.410156 811.039062 1125.269531 751.664062 1089.074219 C 748.816406 1087.363281 745.742188 1086.289062 742.445312 1085.898438 C 677.417969 1078.246094 612.453125 1070.679688 547.550781 1063.191406 C 546.914062 1063.132812 546.480469 1063.378906 546.253906 1063.976562 L 522.578125 1122.011719 C 522.328125 1122.648438 521.710938 1123.0625 521.03125 1123.0625 L 491.023438 1123 C 490.382812 1123 489.886719 1122.445312 489.96875 1121.804688 L 496.777344 1058.179688 C 496.839844 1057.5 496.550781 1057.128906 495.890625 1057.066406 L 331.253906 1038.609375 C 330.574219 1038.527344 330.078125 1038.773438 329.765625 1039.371094 L 326.902344 1044.691406 L 267.238281 1164.351562 C 266.636719 1165.546875 265.691406 1166.105469 264.347656 1166.023438 L 220.730469 1163.195312 C 220.175781 1163.15625 219.78125 1162.640625 219.925781 1162.101562 L 253.769531 1032.195312 C 254.265625 1030.277344 253.523438 1029.226562 251.542969 1029.082031 L 235.25 1027.863281 C 234.714844 1027.824219 234.324219 1028.359375 234.507812 1028.855469 L 244.285156 1055.109375 C 244.507812 1055.726562 244.054688 1056.367188 243.394531 1056.347656 L 206.542969 1055.273438 C 205.039062 1055.230469 203.632812 1054.46875 202.789062 1053.230469 L 183.339844 1025.390625 C 182.453125 1024.109375 181.074219 1023.285156 179.527344 1023.121094 L 141.269531 1019.140625 C 140.484375 1019.058594 139.992188 1018.644531 139.761719 1017.902344 L 132.566406 994.191406 C 131.660156 991.238281 132.753906 989.691406 135.84375 989.589844 L 248.058594 985.648438 C 248.699219 985.628906 248.882812 985.339844 248.632812 984.761719 L 165.335938 791.359375 C 164.945312 790.441406 165.253906 789.96875 166.222656 789.910156 L 227 786.390625 C 227.597656 786.359375 228.03125 786.609375 228.320312 787.128906 L 292.6875 903.710938 C 293.261719 904.761719 294.769531 904.871094 295.46875 903.871094 L 302.855469 893.648438 C 303.289062 893.03125 304.171875 892.941406 304.730469 893.441406 C 318.589844 905.628906 332.078125 916.308594 345.214844 925.46875 C 348.328125 927.640625 351.214844 927.308594 353.898438 924.480469 C 354.371094 924 354.597656 923.429688 354.578125 922.75 L 353.960938 886.558594 L 353.214844 849.390625 C 353.195312 848.558594 353.585938 848.25 354.390625 848.441406 L 380.398438 854.859375 C 381.058594 855.019531 381.46875 855.679688 381.328125 856.339844 L 367.613281 920.828125 C 366.765625 924.808594 371.285156 927.71875 374.5625 925.320312 L 422.988281 890.019531 C 423.4375 889.691406 424.058594 889.769531 424.410156 890.199219 L 439.132812 908.519531 C 439.566406 909.070312 439.464844 909.859375 438.90625 910.269531 C 421.210938 922.96875 395.0625 931.839844 378.605469 938.089844 C 378.027344 938.320312 377.632812 938.890625 377.65625 939.519531 C 377.902344 949.769531 392.917969 960.160156 401.828125 965.890625 C 402.363281 966.238281 403.003906 966.410156 403.640625 966.390625 C 514.222656 962.550781 624.808594 958.921875 735.390625 955.519531 C 738.175781 955.429688 743.722656 955.410156 752.035156 955.460938 C 752.753906 955.460938 753.433594 955.660156 754.035156 956.089844 C 759.582031 959.949219 762.53125 965.308594 762.839844 972.140625 C 762.859375 972.738281 763.167969 972.960938 763.75 972.78125 C 786.371094 965.390625 802.601562 950.941406 812.460938 929.390625 C 812.875 928.5 812.605469 927.980469 811.636719 927.839844 L 760.960938 920.289062 C 759.683594 920.089844 758.777344 918.949219 758.902344 917.671875 L 764.34375 857 C 764.425781 856.011719 765.460938 855.371094 766.386719 855.738281 L 829.019531 880.691406 C 829.679688 880.960938 830.257812 880.839844 830.773438 880.339844 L 843.148438 868.320312 C 843.621094 867.871094 844.160156 867.71875 844.777344 867.910156 L 860.84375 872.28125 C 861.730469 872.53125 862.679688 872.238281 863.296875 871.539062 L 888.683594 843.179688 C 890.066406 841.640625 892.023438 840.75 894.085938 840.769531 L 1025.769531 841.179688 C 1026.609375 841.199219 1027.050781 840.769531 1027.050781 839.921875 L 1027.109375 780.75 C 1027.109375 779.988281 1026.738281 779.558594 1025.980469 779.449219 C 1011.71875 777.640625 992.8125 774.179688 978.914062 777.191406 C 975.117188 778.03125 971.261719 778.058594 967.324219 777.289062 C 966.558594 777.140625 965.960938 776.511719 965.878906 775.71875 L 965.320312 770.519531 C 965.175781 769.230469 964.125 768.230469 962.828125 768.128906 L 375.574219 723.320312 L 250.328125 713.539062 C 246.65625 713.25 246.511719 712.390625 249.890625 710.921875 C 259.277344 706.898438 268.496094 703.359375 277.546875 700.320312 C 280.890625 699.191406 284.394531 698.800781 288.066406 699.109375 C 328.386719 702.628906 368.683594 706.179688 409.003906 709.75 C 503.480469 718.140625 598.039062 725.980469 692.679688 733.28125 C 779.132812 739.941406 865.484375 748.050781 951.9375 754.980469 C 955.007812 755.21875 958.96875 755.179688 963.855469 754.871094 C 964.578125 754.828125 964.992188 754.441406 965.09375 753.71875 L 965.527344 750.660156 C 965.628906 749.960938 966.023438 749.53125 966.722656 749.359375 C 972.664062 747.980469 978.375 748.230469 983.863281 750.070312 C 987.304688 751.199219 990.195312 751.78125 992.523438 751.78125 C 1003.449219 751.738281 1020.121094 753.019531 1027.210938 748.890625 C 1027.828125 748.539062 1027.910156 748.089844 1027.441406 747.570312 C 1025.628906 745.488281 1023.289062 744.480469 1020.46875 744.578125 C 1019.390625 744.621094 1018.980469 743.21875 1019.890625 742.660156 C 1035.960938 732.851562 1056.210938 732.351562 1076.789062 734.039062 C 1085.839844 734.78125 1093.890625 738.371094 1102.320312 741.550781 C 1103.5 741.980469 1103.269531 743.710938 1102.011719 743.839844 C 1099.25 744.109375 1096.800781 745.160156 1094.648438 746.949219 C 1093.578125 747.839844 1094.300781 749.589844 1095.679688 749.46875 C 1102.859375 748.890625 1109.710938 748.289062 1116.21875 747.679688 C 1122.351562 747.101562 1128.230469 744.230469 1135.441406 744.390625 C 1143.488281 744.578125 1148.890625 743.160156 1156.109375 742.25 C 1157.371094 742.089844 1158.359375 742.230469 1159.078125 742.660156 C 1160.171875 743.320312 1160.558594 744.308594 1160.300781 745.628906 C 1160.070312 746.679688 1160.5 747.121094 1161.558594 746.949219 L 1540.589844 686.460938 "/>
</svg>
