<svg xmlns="http://www.w3.org/2000/svg" width="120" height="120" viewBox="0 0 120 120">
  <g id="play-button" transform="translate(-1096 -3459)">
    <g id="Ellipse_15" data-name="Ellipse 15" transform="translate(1096 3459)" fill="rgba(32,46,67,0.8)" stroke="#fff" stroke-width="8">
      <circle cx="60" cy="60" r="60" stroke="none"/>
      <circle cx="60" cy="60" r="56" fill="none"/>
    </g>
    <g id="Polygon_1" data-name="Polygon 1" transform="translate(1183.5 3492.5) rotate(90)" fill="#fff">
      <path d="M 44.34922027587891 45.49999618530273 L 8.650781631469727 45.49999618530273 C 7.024841785430908 45.49999618530273 5.568371772766113 44.65956497192383 4.75474214553833 43.25184631347656 C 3.941101789474487 41.84412384033203 3.939901828765869 40.16257476806641 4.751542091369629 38.75369644165039 L 22.60075187683105 7.770145416259766 C 23.41372108459473 6.358955860137939 24.87138175964355 5.51645565032959 26.50000190734863 5.51645565032959 C 28.12861251831055 5.51645565032959 29.58627128601074 6.358955860137939 30.39924240112305 7.770145416259766 L 48.24846267700195 38.75369644165039 C 49.06010055541992 40.16257476806641 49.05890274047852 41.84412384033203 48.24526214599609 43.25184631347656 C 47.43163299560547 44.65956497192383 45.97516250610352 45.49999618530273 44.34922027587891 45.49999618530273 Z" stroke="none"/>
      <path d="M 26.49999237060547 6.016456604003906 C 25.05233192443848 6.016456604003906 23.75664138793945 6.765346527099609 23.03400230407715 8.019737243652344 L 5.184780120849609 39.0032844543457 C 4.463333129882812 40.255615234375 4.464393615722656 41.75033569335938 5.187633514404297 43.00164413452148 C 5.910861968994141 44.25294494628906 7.205501556396484 44.99999618530273 8.650783538818359 44.99999618530273 L 44.34921264648438 44.99999618530273 C 45.79450225830078 44.99999618530273 47.08914184570312 44.25294494628906 47.81237030029297 43.00163650512695 C 48.53560256958008 41.75032424926758 48.53666305541992 40.255615234375 47.81521224975586 39.0032844543457 L 29.96599197387695 8.019737243652344 C 29.24335098266602 6.765346527099609 27.94765281677246 6.016456604003906 26.49999237060547 6.016456604003906 M 26.49999618530273 5.016456604003906 C 28.18538475036621 5.016456604003906 29.87077140808105 5.851154327392578 30.83249282836914 7.520557403564453 L 48.68171310424805 38.50410461425781 C 50.60200119018555 41.83743667602539 48.19611358642578 45.99999618530273 44.34921264648438 45.99999618530273 L 8.650783538818359 45.99999618530273 C 4.803882598876953 45.99999618530273 2.398002624511719 41.83743667602539 4.318283081054688 38.50410461425781 L 22.16750144958496 7.520557403564453 C 23.12922096252441 5.851154327392578 24.81460952758789 5.016456604003906 26.49999618530273 5.016456604003906 Z" stroke="none" fill="#707070"/>
    </g>
  </g>
</svg>
