<svg width="154" height="146" viewBox="0 0 154 146" fill="none" xmlns="http://www.w3.org/2000/svg">
    <path d="M128.333 12.1667H25.6667C18.5891 12.1667 12.8333 17.6234 12.8333 24.3333V97.3333C12.8333 104.043 18.5891 109.5 25.6667 109.5H44.9167V132.41L85.1941 109.5H128.333C135.411 109.5 141.167 104.043 141.167 97.3333V24.3333C141.167 17.6234 135.411 12.1667 128.333 12.1667ZM128.333 97.3333H81.6393L57.75 110.923V97.3333H25.6667V24.3333H128.333V97.3333Z" fill="white"/>
    <path d="M96.25 73C103.338 73 109.083 67.5528 109.083 60.8333C109.083 54.1139 103.338 48.6667 96.25 48.6667C89.1623 48.6667 83.4167 54.1139 83.4167 60.8333C83.4167 67.5528 89.1623 73 96.25 73Z" fill="white"/>
    <path d="M57.75 73C64.8376 73 70.5833 67.5528 70.5833 60.8333C70.5833 54.1139 64.8376 48.6667 57.75 48.6667C50.6623 48.6667 44.9167 54.1139 44.9167 60.8333C44.9167 67.5528 50.6623 73 57.75 73Z" fill="white"/>
</svg>
