<svg width="292" height="292" viewBox="0 0 292 292" fill="none" xmlns="http://www.w3.org/2000/svg">
    <path d="M146 16.2222C120.332 16.2222 95.2412 23.8336 73.8994 38.0937C52.5575 52.3539 35.9236 72.6224 26.101 96.3362C16.2784 120.05 13.7084 146.144 18.7159 171.318C23.7234 196.493 36.0836 219.617 54.2333 237.767C72.3831 255.916 95.5072 268.277 120.682 273.284C145.856 278.292 171.95 275.722 195.664 265.899C219.378 256.076 239.646 239.443 253.906 218.101C268.166 196.759 275.778 171.668 275.778 146C275.778 111.581 262.105 78.5713 237.767 54.2333C213.429 29.8952 180.419 16.2222 146 16.2222V16.2222ZM146 259.556C123.541 259.556 101.586 252.896 82.912 240.418C64.2379 227.94 49.6832 210.205 41.0884 189.456C32.4936 168.706 30.2449 145.874 34.6264 123.846C39.008 101.819 49.8231 81.5851 65.7041 65.7041C81.5852 49.8231 101.819 39.008 123.846 34.6264C145.874 30.2448 168.706 32.4936 189.456 41.0884C210.205 49.6831 227.94 64.2378 240.418 82.9119C252.896 101.586 259.556 123.541 259.556 146C259.556 176.117 247.592 205 226.296 226.296C205 247.592 176.117 259.556 146 259.556Z" fill="#314666"/>
    <path d="M227.111 98.1444C225.591 96.6337 223.536 95.7858 221.393 95.7858C219.25 95.7858 217.194 96.6337 215.674 98.1444L125.641 187.772L76.9744 139.106C75.4901 137.503 73.4299 136.556 71.2471 136.472C69.0643 136.388 66.9376 137.175 65.335 138.659C63.7323 140.144 62.785 142.204 62.7013 144.387C62.6177 146.57 63.4045 148.696 64.8889 150.299L125.641 210.889L227.111 109.662C227.871 108.908 228.475 108.011 228.887 107.023C229.298 106.034 229.51 104.974 229.51 103.903C229.51 102.833 229.298 101.772 228.887 100.784C228.475 99.7956 227.871 98.8985 227.111 98.1444Z" fill="#314666"/>
</svg>
